<svg width="284.896" height="192.319" viewBox="0 0 284.896 192.319" xmlns="http://www.w3.org/2000/svg"><path d="m104.679 5.166-.161 2.398 3.554-.959c11.307-2.717 24.23-3.837 33.923-3.037 15.347 1.119 25.524 6.235 29.724 14.868 1.544 2.902 1.612 3.177 1.615 8.078v.714c0 4.637-.161 6.075-.969 8.793-8.885 25.42-44.1 50.359-101.933 72.101-4.523 1.759-8.561 3.197-8.885 3.517l-.323-.16c-.646.32-2.1 5.276-3.877 12.63l-.323 1.119 6.785.64q.693.06 1.387.125l1.392.132c13.716 1.334 28.35 3.704 49.076 7.896 17.77 3.357 32.955 7.194 34.57 8.313 2.262 1.599 3.392 3.837 3.23 5.915-.322 2.558-1.453 4.316-3.553 5.116-1.454.64-1.777.64-3.231 0s-3.07-2.558-3.07-3.997c0-.96-3.876-3.357-8.561-5.276-8.268-3.487-25.863-7.988-43.527-11.33l-1.452-.271a392 392 0 0 0-8.653-1.508c-2.228-.33-4.72-.678-7.243-1.012l-.757-.1-.379-.049-.757-.098c-6.43-.827-12.668-1.512-14.807-1.538h-.232c-.32.004-.507.03-.54.08-.647.479-12.293 41.309-13.747 49.462-1.454 8.473-2.261 11.19-3.877 13.11-1.615 1.918-3.715 1.918-5.33.319-.97-.96-1.132-1.439-.97-3.837.144-1.421 1.819-7.137 3.778-13.33l.246-.776q.248-.779.5-1.561l14.068-43.867-5.007-.48c-1.974-.122-4.806-.182-8.052-.187h-1.096a387 387 0 0 0-7.62.094l-1.426.033c-7.128.18-14.196.54-17.83 1.02-3.393.32-7.108.799-8.239.799h-.38c-1.601-.006-1.712-.09-1.72-1.309v-1.889l12.762-3.197c13.892-3.517 21-5.595 34.893-10.072l9.208-3.037 9.854-29.096c11.63-34.532 16.962-49.08 22.293-61.39l.807-1.759-2.1.8c-4.684 1.758-15.185 6.714-19.708 9.112C49.916 37.3 36.185 49.45 32.793 58.563c-1.454 3.836-.646 4.636 5.654 6.235 5.654 1.438 6.946 4.156 3.07 6.714-3.555 2.238-9.855.64-13.086-3.357-1.292-1.599-1.453-2.238-1.615-5.276-.162-3.197 0-3.677 1.454-6.714 2.261-4.637 5.17-8.314 11.146-14.069s12.116-10.391 20.516-15.507c6.946-4.317 19.708-10.711 27.462-13.749l5.493-2.078 2.423-3.837c1.292-2.078 3.069-4.476 4.038-5.276 3.393-3.197 5.977-1.598 5.331 3.517M55.732 113.558s-7.27 2.238-16.154 5.275l-16.154 5.116 8.723.16c7.43 0 12.6.32 19.385.8.646.16 1.13-.64 2.585-5.596a115 115 0 0 1 1.606-5.728zM235.105 7.298c.471 1.103.471 1.89-1.098 5.511-11.144 27.24-18.992 50.07-28.41 82.977-1.412 5.354-2.668 9.92-2.51 10.077.156.158 1.726-2.047 3.452-4.723 4.552-6.928 12.086-17.163 15.853-20.941 3.453-3.622 4.865-4.094 5.964-1.732.471 1.26.314 1.889-1.099 6.612-2.197 6.928-2.197 6.77.314 6.613 1.727-.314 18.05-7.085 20.405-8.66.438-.263.73-.38.984-.321 1.261-1.328 2.689-2.255 4.132-2.5 1.97-.483 3.611.323 4.924 2.26.657.967.657 1.451.165 3.387-1.15 4.033-5.253 8.55-8.044 8.55-.82 0-.985.161-.82.645.984 2.581 6.894.645 17.235-5.162 4.268-2.581 10.178-5.646 12.804-6.937 4.268-2.097 5.09-2.258 5.418-1.613l-.329.161c.821 1.29.657 1.452-1.641 2.743-.701.393-2.622 1.566-5.02 3.007l-.584.351c-.988.592-2.042 1.22-3.116 1.853l-.646.379-.648.379c-4.268 2.58-9.192 5.484-10.998 6.452-5.581 3.065-10.342 4.195-13.132 3.227-1.478-.646-3.448-3.227-3.94-5.001-.436-2.498.22-5.502 1.501-8.144-1.9.933-5.068 2.353-8.27 3.745l-.77.334-.767.33c-4.33 1.865-8.362 3.525-9 3.684-4.08.788-6.12-2.519-4.551-7.872.157-.945.314-1.89.157-2.047-.25-.25-4.245 4.942-8.237 10.79l-.42.619q-.316.465-.628.933l-.415.625q-.208.312-.412.625l-.402.615q-.4.615-.787 1.223c-4.552 6.928-6.906 11.494-8.319 15.43-1.255 3.622-2.511 4.252-4.865 2.362-1.099-.787-1.256-1.26-1.256-4.408 0-2.936 1.408-9.365 3.763-17.795l.025-.003c-.486 0-5.838 2.06-12 4.594-16.542 6.811-21.731 8.395-25.461 7.286-2.108-.633-4.054-2.534-4.703-4.593s.162-5.227 2.595-9.187c.334-.599.754-1.24 1.234-1.896q-.567.215-1.255.439c-6.567 2.187-15.576 3.437-26.57 4.062l-4.887.312-.611 2.5c-1.374 4.842-5.955 13.278-9.162 16.715-3.818 4.374-5.956 5.467-8.552 4.218-1.985-.782-2.901-2.969-2.748-6.874.152-4.374 1.527-9.53 3.817-14.372 2.138-4.53 4.429-7.186 6.567-7.967.916-.156 2.137-.781 2.9-1.406.764-.469 2.291-.937 3.36-1.094 1.527-.156 1.986 0 2.902.938.61.468 1.221 1.406 1.374 2.03.153.938.61 1.094 5.04 1.25 7.329.625 18.17-.625 26.417-3.124 2.193-.598 3.406-.624 3.774-.488 2.003-2.182 4.232-4.104 5.643-4.747 3.73-1.426 6.487-.159 6.974 3.168.486 2.217-1.298 4.118-3.568 4.118-2.108 0-5.352 2.06-7.946 4.752-6 6.811-3.892 10.138 4.865 8.078 2.128-.623 8.098-2.884 14.426-5.44l.906-.366a412 412 0 0 0 8.831-3.698c3.084-1.205 6.022-2.41 6.721-2.389 2.776-9.573 6.585-21.251 10.852-33.171l.536-1.493.608-1.678a664 664 0 0 1 2.795-7.55c1.727-4.408 2.512-6.77 2.04-6.927-.156 0-.784-.473-1.412-.787-1.255-1.26-.941-3.464 1.57-7.558 3.296-5.51 9.103-16.847 11.3-22.516 1.57-4.093 2.041-4.566 3.14-4.723.941-.158 1.412.157 1.726.945M122.844 94.612c0 .312-.764 1.406-1.527 2.187-.917.937-2.29 3.124-3.207 4.999-1.833 3.905-4.276 11.247-4.276 12.966 0 .937.153 1.093.916.625.459-.157 1.986-1.875 3.665-3.593 1.985-2.187 3.36-4.374 5.04-8.124v-.312c2.9-6.093 3.054-7.03 2.137-7.342-.458-.157-1.069-.625-1.68-1.25-.763-.625-1.068-.625-1.068-.156m-12.995-83.53c-3.23.799-6.138 1.598-6.623 1.918-.323.32-1.292 2.238-1.938 4.316-.727 2.197-2.197 6.052-4.039 10.678l-.563 1.41a887 887 0 0 1-3.29 8.083l-.434 1.052-.437 1.055-.881 2.118-.56 1.34-.35.834c-4.837 11.518-9.61 22.322-10.447 23.15-.969 1.279-3.392 1.279-4.038 0-.808-1.44-.485-3.517.807-5.116 1.384-1.956 4.944-8.937 8.498-16.442l.402-.852.2-.427.424-.904c1.902-4.071 3.74-8.169 5.177-11.59 2.423-5.756 6.461-16.787 6.3-17.106-.162 0-1.13.16-2.1.64-1.777.479-1.939.799-4.362 5.435-6.138 12.31-16.154 40.766-26.17 74.339-1.776 6.075-3.553 11.67-3.553 12.15l.484-.32c-.323.8-.161.96.485.64.484-.16 4.361-1.6 8.723-3.358 55.57-20.943 91.594-47.001 97.733-70.662 1.13-3.677 1.13-8.952 0-11.99-.808-2.878-4.523-6.874-7.593-8.793-10.338-5.915-30.693-6.554-51.855-1.598M249.317 89.73c-.492 2.097 1.313 1.613 3.447-.646 1.97-2.258 2.627-4.033 1.806-4.84-1.149-.967-4.432 2.42-5.253 5.486M100.734 4.739l-.05.053c-.578.634-2.95 3.923-2.95 4.211 0 .48 1.777-.16 2.261-.799.433-.571.995-2.926.765-3.424z" fill="#8E1818"/></svg>
